# xmcd
#
# Track frame offsets: 
#        150
#        14266
#        26339
#        40845
#        59474
#        77149
#        92298
#        106863
#        127927
#        146052
#        162508
#        177780
#        199018
#        220859
#        234614
#        244492
#
# Disc length: 3417 seconds
#
# Revision: 10
# Processed by: cddbd v1.5.2PL0 Copyright (c) Steve Scherf et al.
# Submitted via: ExactAudioCopyFreeDBPlugin 1.0
#
DISCID=d10d5710
DTITLE=John Denver - Unplugged
DYEAR=2001
DGENRE=Country
TTITLE0=Annie's song
TTITLE1=Perhaps love
TTITLE2=Dreamland express
TTITLE3=Rocky mountain high
TTITLE4=Seasons of the heart
TTITLE5=Whispering Jesse
TTITLE6=Take me home, country roads
TTITLE7=For you
TTITLE8=Windsong
TTITLE9=Leaving on a jetplane
TTITLE10=I'm sorry
TTITLE11=Back home again
TTITLE12=Sunshine on my shoulders
TTITLE13=Thank God I'm a country boy
TTITLE14=Denver, John - Christmas for cowboys
TTITLE15=Love again
EXTD=Denver, John - Unplugged\nYEAR: 2001
EXTT0=
EXTT1=
EXTT2=
EXTT3=
EXTT4=
EXTT5=
EXTT6=
EXTT7=
EXTT8=
EXTT9=
EXTT10=
EXTT11=
EXTT12=
EXTT13=
EXTT14=
EXTT15=
PLAYORDER=
